<?xml version="1.0" encoding="UTF-8"?>
<svg width="211px" height="35px" viewBox="0 0 211 35" version="1.1" xmlns="http://www.w3.org/2000/svg" xmlns:xlink="http://www.w3.org/1999/xlink">
    <!-- Generator: Sketch 53.2 (72643) - https://sketchapp.com -->
    <title>MovieDate</title>
    <desc>Created with Sketch.</desc>
    <g id="MovieDate" stroke="none" stroke-width="1" fill="none" fill-rule="evenodd">
        <g id="clapper-board" fill="#EF544F" fill-rule="nonzero">
            <path d="M28.9,7.54951657e-16 L5.1,7.54951657e-16 C2.28334778,0 7.54951657e-16,2.28334778 0,5.1 L0,28.9 C7.54951657e-16,31.7166522 2.28334778,34 5.1,34 L28.9,34 C31.7166522,34 34,31.7166522 34,28.9 L34,5.1 C34,2.28334778 31.7166522,0 28.9,7.54951657e-16 Z M23.953,3.4 L17.153,10.2 L10.047,10.2 L16.847,3.4 L23.953,3.4 Z M3.4,5.1 C3.4,4.16111593 4.16111593,3.4 5.1,3.4 L12.053,3.4 L5.253,10.2 L3.4,10.2 L3.4,5.1 Z M30.6,28.9 C30.6,29.8388841 29.8388841,30.6 28.9,30.6 L5.1,30.6 C4.16111593,30.6 3.4,29.8388841 3.4,28.9 L3.4,13.6 L30.6,13.6 L30.6,28.9 Z M30.6,10.2 L21.947,10.2 L28.747,3.4 L28.9,3.4 C29.8388841,3.4 30.6,4.16111593 30.6,5.1 L30.6,10.2 Z" id="Shape"></path>
        </g>
        <path d="M18.6626506,16 C19.5301248,16 20.2740933,16.1463949 20.8945783,16.4391892 C21.5150633,16.7319834 21.9849382,17.1360335 22.3042169,17.6513514 C22.6234956,18.1666692 22.7831325,18.7405374 22.7831325,19.372973 C22.7831325,20.1693734 22.5602432,20.8222947 22.1144578,21.3317568 C21.6686725,21.8412188 21.0783169,22.1545039 20.3433735,22.2716216 L20.3433735,22.3594595 C22.1265149,22.8747774 23.0180723,23.8936861 23.0180723,25.4162162 C23.0180723,26.4819873 22.6506061,27.3457174 21.9156627,28.0074324 C21.1807192,28.6691475 20.144585,29 18.8072289,29 C17.3855351,29 16.2530163,28.6574359 15.4096386,27.9722973 C14.5662608,27.2871587 14.096386,26.2536105 14,24.8716216 L16.4939759,24.8716216 C16.5542172,25.5040572 16.7680705,26.0047279 17.1355422,26.3736486 C17.5030139,26.7425694 18.024093,26.927027 18.6987952,26.927027 C19.2771113,26.927027 19.728914,26.7718484 20.0542169,26.4614865 C20.3795197,26.1511246 20.5421687,25.7441467 20.5421687,25.2405405 C20.5421687,24.6432403 20.3072313,24.1864881 19.8373494,23.8702703 C19.3674675,23.5540525 18.6747034,23.3959459 17.7590361,23.3959459 L17.2349398,23.3959459 L17.2349398,21.3756757 L17.7590361,21.3756757 C19.4457916,21.3990992 20.2891566,20.8310869 20.2891566,19.6716216 C20.2891566,19.1680155 20.1385557,18.7727492 19.8373494,18.4858108 C19.5361431,18.1988724 19.1265086,18.0554054 18.6084337,18.0554054 C18.0662623,18.0554054 17.6204837,18.2222956 17.2710843,18.5560811 C16.921685,18.8898665 16.7228918,19.3554024 16.6746988,19.9527027 L14.1807229,19.9527027 C14.2530124,18.6878315 14.6746949,17.7128413 15.4457831,17.0277027 C16.2168713,16.3425641 17.2891498,16 18.6626506,16 Z M24.4096386,18.7932432 L24.4096386,16.4743243 L29,16.4743243 L29,28.877027 L26.3253012,28.877027 L26.3253012,18.7932432 L24.4096386,18.7932432 Z" id="31" fill="#EF544F"></path>
        <text id="MOVIEDATES" font-family="Poppins-SemiBold, Poppins" font-size="24.4" font-weight="500" letter-spacing="0.540000021" fill="#FFFFFF">
            <tspan x="45" y="26">MOVIEDATE</tspan>
            <tspan x="188.7448" y="26">S</tspan>
        </text>
    </g>
</svg>