<?xml version="1.0" encoding="UTF-8"?>
<svg width="198px" height="35px" viewBox="0 0 198 35" version="1.1" xmlns="http://www.w3.org/2000/svg" xmlns:xlink="http://www.w3.org/1999/xlink">
    <!-- Generator: Sketch 52.6 (67491) - http://www.bohemiancoding.com/sketch -->
    <title>MovieDate</title>
    <desc>Created with Sketch.</desc>
    <g id="MovieDate" stroke="none" stroke-width="1" fill="none" fill-rule="evenodd">
        <path d="M64.9846072,8.44813278 L64.9846072,25.8257261 L61.4920382,25.8257261 L61.4920382,13.7012448 L57.0265393,25.8257261 L53.9830149,25.8257261 L49.5175159,13.7510373 L49.5175159,25.8257261 L46,25.8257261 L46,8.44813278 L50.2659236,8.44813278 L55.5546709,21.5186722 L60.7436306,8.44813278 L64.9846072,8.44813278 Z M76.6348195,8 C78.2813246,8 79.7739671,8.38173892 81.1127919,9.14522822 C82.4516168,9.90871751 83.5076925,10.9750969 84.281051,12.3443983 C85.0544094,13.7136998 85.4410828,15.2614022 85.4410828,16.9875519 C85.4410828,18.7137016 85.0544094,20.2655533 84.281051,21.6431535 C83.5076925,23.0207538 82.4516168,24.0912825 81.1127919,24.8547718 C79.7739671,25.6182611 78.2813246,26 76.6348195,26 C74.9883145,26 73.495672,25.6182611 72.1568471,24.8547718 C70.8180223,24.0912825 69.7619465,23.0207538 68.9885881,21.6431535 C68.2152297,20.2655533 67.8285563,18.7137016 67.8285563,16.9875519 C67.8285563,15.2614022 68.2152297,13.7136998 68.9885881,12.3443983 C69.7619465,10.9750969 70.8180223,9.90871751 72.1568471,9.14522822 C73.495672,8.38173892 74.9883145,8 76.6348195,8 Z M76.6348195,11.2365145 C75.603675,11.2365145 74.6972792,11.4688773 73.9156051,11.93361 C73.133931,12.3983426 72.5227375,13.0663857 72.0820064,13.9377593 C71.6412752,14.809133 71.420913,15.8257203 71.420913,16.9875519 C71.420913,18.1493834 71.6412752,19.1659707 72.0820064,20.0373444 C72.5227375,20.908718 73.133931,21.5767612 73.9156051,22.0414938 C74.6972792,22.5062264 75.603675,22.7385892 76.6348195,22.7385892 C77.6659641,22.7385892 78.5723599,22.5062264 79.354034,22.0414938 C80.1357081,21.5767612 80.7469016,20.908718 81.1876327,20.0373444 C81.6283639,19.1659707 81.8487261,18.1493834 81.8487261,16.9875519 C81.8487261,15.8257203 81.6283639,14.809133 81.1876327,13.9377593 C80.7469016,13.0663857 80.1357081,12.3983426 79.354034,11.93361 C78.5723599,11.4688773 77.6659641,11.2365145 76.6348195,11.2365145 Z M90.7547771,8.24896266 L95.4697452,22.1659751 L100.20966,8.24896266 L103.976645,8.24896266 L97.7399151,25.8257261 L93.2245223,25.8257261 L86.9877919,8.24896266 L90.7547771,8.24896266 Z M109.589703,8.24896266 L109.589703,25.8257261 L106.072187,25.8257261 L106.072187,8.24896266 L109.589703,8.24896266 Z M116.5,11.0373444 L116.5,15.593361 L122.73673,15.593361 L122.73673,18.2821577 L116.5,18.2821577 L116.5,23.0124481 L123.485138,23.0124481 L123.485138,25.8257261 L112.982484,25.8257261 L112.982484,8.24896266 L123.485138,8.24896266 L123.485138,11.0373444 L116.5,11.0373444 Z M141.771231,17.0124481 C141.771231,18.7551954 141.405347,20.2904498 140.673567,21.6182573 C139.941787,22.9460647 138.881553,23.9792494 137.492834,24.7178423 C136.104115,25.4564352 134.453477,25.8257261 132.54087,25.8257261 L126.279193,25.8257261 L126.279193,8.24896266 L132.54087,8.24896266 C134.453477,8.24896266 136.104115,8.6099549 137.492834,9.33195021 C138.881553,10.0539455 139.941787,11.0746822 140.673567,12.3941909 C141.405347,13.7136995 141.771231,15.2531032 141.771231,17.0124481 Z M132.241507,22.6887967 C134.137483,22.6887967 135.605179,22.1908763 136.644639,21.1950207 C137.684099,20.1991651 138.203822,18.8049882 138.203822,17.0124481 C138.203822,15.2033105 137.684099,13.8008349 136.644639,12.8049793 C135.605179,11.8091237 134.137483,11.3112033 132.241507,11.3112033 L129.796709,11.3112033 L129.796709,22.6887967 L132.241507,22.6887967 Z M155.342357,22.2904564 L148.282378,22.2904564 L147.035032,25.8257261 L143.317941,25.8257261 L149.80414,8.44813278 L153.820594,8.44813278 L160.281847,25.8257261 L156.564756,25.8257261 L155.342357,22.2904564 Z M154.394374,19.626556 L151.799894,12.2074689 L149.205414,19.626556 L154.394374,19.626556 Z M174.351911,8.24896266 L174.351911,11.0373444 L169.487261,11.0373444 L169.487261,25.8257261 L165.969745,25.8257261 L165.969745,11.0373444 L161.130042,11.0373444 L161.130042,8.24896266 L174.351911,8.24896266 Z M180.014862,11.0373444 L180.014862,15.593361 L186.251592,15.593361 L186.251592,18.2821577 L180.014862,18.2821577 L180.014862,23.0124481 L187,23.0124481 L187,25.8257261 L176.497346,25.8257261 L176.497346,8.24896266 L187,8.24896266 L187,11.0373444 L180.014862,11.0373444 Z" fill="#FFFFFF"></path>
        <g id="clapper-board" fill="#EF544F" fill-rule="nonzero">
            <path d="M28.9,7.54951657e-16 L5.1,7.54951657e-16 C2.28334778,0 7.54951657e-16,2.28334778 0,5.1 L0,28.9 C7.54951657e-16,31.7166522 2.28334778,34 5.1,34 L28.9,34 C31.7166522,34 34,31.7166522 34,28.9 L34,5.1 C34,2.28334778 31.7166522,0 28.9,7.54951657e-16 Z M23.953,3.4 L17.153,10.2 L10.047,10.2 L16.847,3.4 L23.953,3.4 Z M3.4,5.1 C3.4,4.16111593 4.16111593,3.4 5.1,3.4 L12.053,3.4 L5.253,10.2 L3.4,10.2 L3.4,5.1 Z M30.6,28.9 C30.6,29.8388841 29.8388841,30.6 28.9,30.6 L5.1,30.6 C4.16111593,30.6 3.4,29.8388841 3.4,28.9 L3.4,13.6 L30.6,13.6 L30.6,28.9 Z M30.6,10.2 L21.947,10.2 L28.747,3.4 L28.9,3.4 C29.8388841,3.4 30.6,4.16111593 30.6,5.1 L30.6,10.2 Z" id="Shape"></path>
        </g>
        <path d="M18.6626506,16 C19.5301248,16 20.2740933,16.1463949 20.8945783,16.4391892 C21.5150633,16.7319834 21.9849382,17.1360335 22.3042169,17.6513514 C22.6234956,18.1666692 22.7831325,18.7405374 22.7831325,19.372973 C22.7831325,20.1693734 22.5602432,20.8222947 22.1144578,21.3317568 C21.6686725,21.8412188 21.0783169,22.1545039 20.3433735,22.2716216 L20.3433735,22.3594595 C22.1265149,22.8747774 23.0180723,23.8936861 23.0180723,25.4162162 C23.0180723,26.4819873 22.6506061,27.3457174 21.9156627,28.0074324 C21.1807192,28.6691475 20.144585,29 18.8072289,29 C17.3855351,29 16.2530163,28.6574359 15.4096386,27.9722973 C14.5662608,27.2871587 14.096386,26.2536105 14,24.8716216 L16.4939759,24.8716216 C16.5542172,25.5040572 16.7680705,26.0047279 17.1355422,26.3736486 C17.5030139,26.7425694 18.024093,26.927027 18.6987952,26.927027 C19.2771113,26.927027 19.728914,26.7718484 20.0542169,26.4614865 C20.3795197,26.1511246 20.5421687,25.7441467 20.5421687,25.2405405 C20.5421687,24.6432403 20.3072313,24.1864881 19.8373494,23.8702703 C19.3674675,23.5540525 18.6747034,23.3959459 17.7590361,23.3959459 L17.2349398,23.3959459 L17.2349398,21.3756757 L17.7590361,21.3756757 C19.4457916,21.3990992 20.2891566,20.8310869 20.2891566,19.6716216 C20.2891566,19.1680155 20.1385557,18.7727492 19.8373494,18.4858108 C19.5361431,18.1988724 19.1265086,18.0554054 18.6084337,18.0554054 C18.0662623,18.0554054 17.6204837,18.2222956 17.2710843,18.5560811 C16.921685,18.8898665 16.7228918,19.3554024 16.6746988,19.9527027 L14.1807229,19.9527027 C14.2530124,18.6878315 14.6746949,17.7128413 15.4457831,17.0277027 C16.2168713,16.3425641 17.2891498,16 18.6626506,16 Z M24.4096386,18.7932432 L24.4096386,16.4743243 L29,16.4743243 L29,28.877027 L26.3253012,28.877027 L26.3253012,18.7932432 L24.4096386,18.7932432 Z" id="31" fill="#EF544F"></path>
    </g>
</svg>