<?xml version="1.0" encoding="UTF-8"?>
<svg width="211px" height="35px" viewBox="0 0 211 35" version="1.1" xmlns="http://www.w3.org/2000/svg" xmlns:xlink="http://www.w3.org/1999/xlink">
    <!-- Generator: Sketch 53.2 (72643) - https://sketchapp.com -->
    <title>MovieDate</title>
    <desc>Created with Sketch.</desc>
    <g id="MovieDate" stroke="none" stroke-width="1" fill="none" fill-rule="evenodd">
        <g id="clapper-board" fill="#EF544F" fill-rule="nonzero">
            <path d="M28.9,7.54951657e-16 L5.1,7.54951657e-16 C2.28334778,0 7.54951657e-16,2.28334778 0,5.1 L0,28.9 C7.54951657e-16,31.7166522 2.28334778,34 5.1,34 L28.9,34 C31.7166522,34 34,31.7166522 34,28.9 L34,5.1 C34,2.28334778 31.7166522,0 28.9,7.54951657e-16 Z M23.953,3.4 L17.153,10.2 L10.047,10.2 L16.847,3.4 L23.953,3.4 Z M3.4,5.1 C3.4,4.16111593 4.16111593,3.4 5.1,3.4 L12.053,3.4 L5.253,10.2 L3.4,10.2 L3.4,5.1 Z M30.6,28.9 C30.6,29.8388841 29.8388841,30.6 28.9,30.6 L5.1,30.6 C4.16111593,30.6 3.4,29.8388841 3.4,28.9 L3.4,13.6 L30.6,13.6 L30.6,28.9 Z M30.6,10.2 L21.947,10.2 L28.747,3.4 L28.9,3.4 C29.8388841,3.4 30.6,4.16111593 30.6,5.1 L30.6,10.2 Z" id="Shape"></path>
        </g>
        <path d="M18.6626506,16 C19.5301248,16 20.2740933,16.1463949 20.8945783,16.4391892 C21.5150633,16.7319834 21.9849382,17.1360335 22.3042169,17.6513514 C22.6234956,18.1666692 22.7831325,18.7405374 22.7831325,19.372973 C22.7831325,20.1693734 22.5602432,20.8222947 22.1144578,21.3317568 C21.6686725,21.8412188 21.0783169,22.1545039 20.3433735,22.2716216 L20.3433735,22.3594595 C22.1265149,22.8747774 23.0180723,23.8936861 23.0180723,25.4162162 C23.0180723,26.4819873 22.6506061,27.3457174 21.9156627,28.0074324 C21.1807192,28.6691475 20.144585,29 18.8072289,29 C17.3855351,29 16.2530163,28.6574359 15.4096386,27.9722973 C14.5662608,27.2871587 14.096386,26.2536105 14,24.8716216 L16.4939759,24.8716216 C16.5542172,25.5040572 16.7680705,26.0047279 17.1355422,26.3736486 C17.5030139,26.7425694 18.024093,26.927027 18.6987952,26.927027 C19.2771113,26.927027 19.728914,26.7718484 20.0542169,26.4614865 C20.3795197,26.1511246 20.5421687,25.7441467 20.5421687,25.2405405 C20.5421687,24.6432403 20.3072313,24.1864881 19.8373494,23.8702703 C19.3674675,23.5540525 18.6747034,23.3959459 17.7590361,23.3959459 L17.2349398,23.3959459 L17.2349398,21.3756757 L17.7590361,21.3756757 C19.4457916,21.3990992 20.2891566,20.8310869 20.2891566,19.6716216 C20.2891566,19.1680155 20.1385557,18.7727492 19.8373494,18.4858108 C19.5361431,18.1988724 19.1265086,18.0554054 18.6084337,18.0554054 C18.0662623,18.0554054 17.6204837,18.2222956 17.2710843,18.5560811 C16.921685,18.8898665 16.7228918,19.3554024 16.6746988,19.9527027 L14.1807229,19.9527027 C14.2530124,18.6878315 14.6746949,17.7128413 15.4457831,17.0277027 C16.2168713,16.3425641 17.2891498,16 18.6626506,16 Z M24.4096386,18.7932432 L24.4096386,16.4743243 L29,16.4743243 L29,28.877027 L26.3253012,28.877027 L26.3253012,18.7932432 L24.4096386,18.7932432 Z" id="31" fill="#EF544F"></path>
        <path d="M65.13,8.9688 L65.13,26 L61.714,26 L61.714,14.1172 L57.3464,26 L54.3696,26 L50.002,14.166 L50.002,26 L46.5616,26 L46.5616,8.9688 L50.734,8.9688 L55.9068,21.7788 L60.982,8.9688 L65.13,8.9688 Z M76.8696,8.5296 C78.4800081,8.5296 79.9399268,8.90372959 81.2494,9.652 C82.5588732,10.4002704 83.5917962,11.4453933 84.3482,12.7874 C85.1046038,14.1294067 85.4828,15.6462582 85.4828,17.338 C85.4828,19.0297418 85.1046038,20.5506599 84.3482,21.9008 C83.5917962,23.2509401 82.5588732,24.3001296 81.2494,25.0484 C79.9399268,25.7966704 78.4800081,26.1708 76.8696,26.1708 C75.259192,26.1708 73.7992732,25.7966704 72.4898,25.0484 C71.1803268,24.3001296 70.1474038,23.2509401 69.391,21.9008 C68.6345962,20.5506599 68.2564,19.0297418 68.2564,17.338 C68.2564,15.6462582 68.6345962,14.1294067 69.391,12.7874 C70.1474038,11.4453933 71.1803268,10.4002704 72.4898,9.652 C73.7992732,8.90372959 75.259192,8.5296 76.8696,8.5296 Z M76.8696,11.7016 C75.8610616,11.7016 74.9745372,11.9293311 74.21,12.3848 C73.4454629,12.8402689 72.8476688,13.4949957 72.4166,14.349 C71.9855312,15.2030043 71.77,16.1993276 71.77,17.338 C71.77,18.4766724 71.9855312,19.4729957 72.4166,20.327 C72.8476688,21.1810043 73.4454629,21.8357311 74.21,22.2912 C74.9745372,22.7466689 75.8610616,22.9744 76.8696,22.9744 C77.8781384,22.9744 78.7646629,22.7466689 79.5292,22.2912 C80.2937372,21.8357311 80.8915312,21.1810043 81.3226,20.327 C81.7536688,19.4729957 81.9692,18.4766724 81.9692,17.338 C81.9692,16.1993276 81.7536688,15.2030043 81.3226,14.349 C80.8915312,13.4949957 80.2937372,12.8402689 79.5292,12.3848 C78.7646629,11.9293311 77.8781384,11.7016 76.8696,11.7016 Z M91.0248,8.7736 L95.6364,22.4132 L100.2724,8.7736 L103.9568,8.7736 L97.8568,26 L93.4404,26 L87.3404,8.7736 L91.0248,8.7736 Z M109.7916,8.7736 L109.7916,26 L106.3512,26 L106.3512,8.7736 L109.7916,8.7736 Z M116.8952,11.5064 L116.8952,15.9716 L122.9952,15.9716 L122.9952,18.6068 L116.8952,18.6068 L116.8952,23.2428 L123.7272,23.2428 L123.7272,26 L113.4548,26 L113.4548,8.7736 L123.7272,8.7736 L123.7272,11.5064 L116.8952,11.5064 Z M141.9572,17.3624 C141.9572,19.0704085 141.599337,20.5750602 140.8836,21.8764 C140.167863,23.1777398 139.130874,24.1903297 137.7726,24.9142 C136.414327,25.6380703 134.799876,26 132.9292,26 L126.8048,26 L126.8048,8.7736 L132.9292,8.7736 C134.799876,8.7736 136.414327,9.12739646 137.7726,9.835 C139.130874,10.5426035 140.167863,11.5429935 140.8836,12.8362 C141.599337,14.1294065 141.9572,15.6381247 141.9572,17.3624 Z M132.6364,22.9256 C134.490809,22.9256 135.926328,22.4376049 136.943,21.4616 C137.959672,20.4855951 138.468,19.1192088 138.468,17.3624 C138.468,15.5893245 137.959672,14.2148049 136.943,13.2388 C135.926328,12.2627951 134.490809,11.7748 132.6364,11.7748 L130.2452,11.7748 L130.2452,22.9256 L132.6364,22.9256 Z M155.5756,22.5352 L148.6704,22.5352 L147.4504,26 L143.8148,26 L150.1588,8.9688 L154.0872,8.9688 L160.4068,26 L156.7712,26 L155.5756,22.5352 Z M154.6484,19.9244 L152.1108,12.6532 L149.5732,19.9244 L154.6484,19.9244 Z M174.5132,8.7736 L174.5132,11.5064 L169.7552,11.5064 L169.7552,26 L166.3148,26 L166.3148,11.5064 L161.5812,11.5064 L161.5812,8.7736 L174.5132,8.7736 Z M180.3968,11.5064 L180.3968,15.9716 L186.4968,15.9716 L186.4968,18.6068 L180.3968,18.6068 L180.3968,23.2428 L187.2288,23.2428 L187.2288,26 L176.9564,26 L176.9564,8.7736 L187.2288,8.7736 L187.2288,11.5064 L180.3968,11.5064 Z M202.1404,21.2908 C202.1404,22.1692044 201.920802,22.978463 201.4816,23.7186 C201.042398,24.458737 200.391738,25.0524644 199.5296,25.4998 C198.667463,25.9471356 197.618273,26.1708 196.382,26.1708 C195.161994,26.1708 194.072138,25.9634021 193.1124,25.5486 C192.152662,25.1337979 191.38407,24.5360039 190.8066,23.7552 C190.229131,22.9743961 189.899734,22.0634719 189.8184,21.0224 L193.4784,21.0224 C193.559734,21.7218702 193.840331,22.3033977 194.3202,22.767 C194.800069,23.2306023 195.43853,23.4624 196.2356,23.4624 C196.951337,23.4624 197.500332,23.2712686 197.8826,22.889 C198.264869,22.5067314 198.456,22.0146697 198.456,21.4128 C198.456,20.8759973 198.301468,20.4327351 197.9924,20.083 C197.683332,19.7332649 197.292936,19.4526677 196.8212,19.2412 C196.349465,19.0297323 195.698804,18.7857347 194.8692,18.5092 C193.795595,18.1513315 192.917204,17.7975351 192.234,17.4478 C191.550797,17.0980649 190.969269,16.5897367 190.4894,15.9228 C190.009531,15.2558633 189.7696,14.3856054 189.7696,13.312 C189.7696,11.8317259 190.302328,10.6646043 191.3678,9.8106 C192.433272,8.95659573 193.844391,8.5296 195.6012,8.5296 C197.423076,8.5296 198.874861,8.96879561 199.9566,9.8472 C201.038339,10.7256044 201.652399,11.8967927 201.7988,13.3608 L198.09,13.3608 C197.9924,12.7426636 197.732136,12.2343353 197.3092,11.8358 C196.886265,11.4372647 196.308804,11.238 195.5768,11.238 C194.942397,11.238 194.430002,11.4047317 194.0396,11.7382 C193.649198,12.0716683 193.454,12.5555968 193.454,13.19 C193.454,13.6942692 193.604465,14.1131317 193.9054,14.4466 C194.206335,14.7800683 194.588598,15.0525323 195.0522,15.264 C195.515803,15.4754677 196.14613,15.711332 196.9432,15.9716 C198.049339,16.362002 198.948063,16.7279983 199.6394,17.0696 C200.330737,17.4112017 200.920398,17.9235966 201.4084,18.6068 C201.896403,19.2900034 202.1404,20.1846611 202.1404,21.2908 Z" id="MOVIEDATES" fill="#FFFFFF" fill-rule="nonzero"></path>
    </g>
</svg>