<?xml version="1.0" encoding="UTF-8"?>
<svg width="40px" height="40px" viewBox="0 0 40 40" version="1.1" xmlns="http://www.w3.org/2000/svg" xmlns:xlink="http://www.w3.org/1999/xlink">
    <!-- Generator: Sketch 52.6 (67491) - http://www.bohemiancoding.com/sketch -->
    <title>status / book</title>
    <desc>Created with Sketch.</desc>
    <g id="status-/-book" stroke="none" stroke-width="1" fill="none" fill-rule="evenodd">
        <g id="calender" transform="translate(10.000000, 10.000000)" fill="#FFFFFF" fill-rule="nonzero">
            <path d="M17,2 L15,2 L15,1 C15,0.44771525 14.5522847,0 14,0 C13.4477153,0 13,0.44771525 13,1 L13,2 L7,2 L7,1 C7,0.44771525 6.55228475,0 6,0 C5.44771525,0 5,0.44771525 5,1 L5,2 L3,2 C1.34314575,2 0,3.34314575 -4.4408921e-16,5 L-4.4408921e-16,17 C0,18.6568542 1.34314575,20 3,20 L17,20 C18.6568542,20 20,18.6568542 20,17 L20,5 C20,3.34314575 18.6568542,2 17,2 Z M18,17 C18,17.5522847 17.5522847,18 17,18 L3,18 C2.44771525,18 2,17.5522847 2,17 L2,10 L18,10 L18,17 Z M18,8 L2,8 L2,5 C2,4.44771525 2.44771525,4 3,4 L5,4 L5,5 C5,5.55228475 5.44771525,6 6,6 C6.55228475,6 7,5.55228475 7,5 L7,4 L13,4 L13,5 C13,5.55228475 13.4477153,6 14,6 C14.5522847,6 15,5.55228475 15,5 L15,4 L17,4 C17.5522847,4 18,4.44771525 18,5 L18,8 Z" id="Shape"></path>
        </g>
    </g>
</svg>