<?xml version="1.0" encoding="UTF-8"?>
<svg width="40px" height="40px" viewBox="0 0 40 40" version="1.1" xmlns="http://www.w3.org/2000/svg" xmlns:xlink="http://www.w3.org/1999/xlink">
    <!-- Generator: Sketch 52.6 (67491) - http://www.bohemiancoding.com/sketch -->
    <title>status / ticket</title>
    <desc>Created with Sketch.</desc>
    <g id="status-/-ticket" stroke="none" stroke-width="1" fill="none" fill-rule="evenodd">
        <g id="ticket" transform="translate(10.000000, 13.000000)" fill="#FFFFFF" fill-rule="nonzero">
            <path d="M7,5 C6.44771525,5 6,5.44771525 6,6 L6,8 C6,8.55228475 6.44771525,9 7,9 C7.55228475,9 8,8.55228475 8,8 L8,6 C8,5.44771525 7.55228475,5 7,5 Z M19,6 C19.5522847,6 20,5.55228475 20,5 L20,1 C20,0.44771525 19.5522847,0 19,0 L1,0 C0.44771525,0 0,0.44771525 0,1 L0,5 C0,5.55228475 0.44771525,6 1,6 C1.55228475,6 2,6.44771525 2,7 C2,7.55228475 1.55228475,8 1,8 C0.44771525,8 0,8.44771525 0,9 L0,13 C0,13.5522847 0.44771525,14 1,14 L19,14 C19.5522847,14 20,13.5522847 20,13 L20,9 C20,8.44771525 19.5522847,8 19,8 C18.4477153,8 18,7.55228475 18,7 C18,6.44771525 18.4477153,6 19,6 Z M18,4.18 C16.8135466,4.6106251 16.0235233,5.73781549 16.0235233,7 C16.0235233,8.26218451 16.8135466,9.3893749 18,9.82 L18,12 L8,12 C8,11.4477153 7.55228475,11 7,11 C6.44771525,11 6,11.4477153 6,12 L2,12 L2,9.82 C3.18645344,9.3893749 3.97647667,8.26218451 3.97647667,7 C3.97647667,5.73781549 3.18645344,4.6106251 2,4.18 L2,2 L6,2 C6,2.55228475 6.44771525,3 7,3 C7.55228475,3 8,2.55228475 8,2 L18,2 L18,4.18 Z" id="Shape"></path>
        </g>
    </g>
</svg>